<svg width="180" height="90" viewBox="0 0 180 90" fill="none" xmlns="http://www.w3.org/2000/svg">
<path d="M27.4729 6.20483C27.9378 5.70174 28.5295 5.4502 29.248 5.4502C29.9665 5.4502 30.5583 5.65982 31.0655 6.12099V32.1141H35.3343C35.8838 32.1141 36.3064 32.2399 36.6023 32.5334C36.8982 32.7849 37.0672 33.1622 37.0672 33.5396C37.0672 33.9588 36.9404 34.2942 36.6446 34.5877H31.0655V43.6433C31.0655 44.6076 30.8119 45.3203 30.3469 45.8234C29.882 46.3265 29.2903 46.578 28.5718 46.578C27.8533 46.578 27.2615 46.3684 26.7543 45.9073V34.5877H12.722V37.2708C12.722 41.2536 12.1303 44.1884 10.9046 46.1588C9.6789 48.1292 7.73467 49.0935 5.11418 49.0935C3.50807 49.0935 2.28236 48.5904 1.35251 47.5842C0.464925 46.578 0 45.1107 0 43.266C0 40.2894 0.803053 37.8578 2.45142 35.9712C4.0998 34.0846 6.08629 32.9526 8.36866 32.4914V12.5773C8.36866 11.6131 8.62225 10.9004 9.08718 10.3973C9.5521 9.89418 10.1438 9.64264 10.8623 9.64264C11.5809 9.64264 12.1726 9.85226 12.6798 10.3134V32.156H26.7121V8.3849C26.7543 7.42064 27.0079 6.70793 27.4729 6.20483ZM3.00088 46.1588C3.50807 46.7877 4.26886 47.1231 5.24098 47.1231C6.21309 47.1231 6.97388 46.4523 7.52334 45.0688C8.07279 43.6853 8.36866 41.2117 8.36866 37.6481V34.965C6.55122 35.3842 5.07191 36.3066 3.88847 37.7739C2.74729 39.2413 2.15556 41.0859 2.15556 43.3918C2.19783 44.6076 2.45142 45.5299 3.00088 46.1588Z" fill="#005F32"/>
<path d="M59.3414 32.3238C60.0177 32.3238 60.3558 32.8269 60.3558 33.8331C60.3558 36.1809 59.5528 38.319 57.9044 40.2475C56.256 42.1761 53.7623 43.1403 50.3811 43.1403C46.9998 43.1403 44.337 42.2599 42.3083 40.4572C40.2795 38.6544 39.2651 36.0132 39.2651 32.5754C39.2651 29.1376 40.1527 26.3706 41.9702 24.442C43.7453 22.4716 46.0277 21.5073 48.8172 21.5073C50.846 21.5073 52.283 22.0523 53.2129 23.1005C54.1427 24.1486 54.6077 25.4063 54.6077 26.8736C54.6077 29.2633 53.5933 31.2338 51.6068 32.785C49.6203 34.3362 47.0421 35.1328 43.9567 35.1328C44.2525 37.1451 44.971 38.6963 46.1968 39.7025C47.3802 40.7506 48.9863 41.2537 50.9305 41.2537C52.917 41.2537 54.6922 40.4991 56.256 39.0317C57.8199 37.5644 58.6229 35.3843 58.6229 32.5334C58.6229 32.4077 58.8765 32.3238 59.3414 32.3238ZM43.7876 32.9946V33.4139C45.7741 33.1623 47.507 32.5334 48.944 31.5692C50.3811 30.6049 51.1419 29.1376 51.1419 27.209C51.1419 25.9513 50.8883 25.029 50.3388 24.3582C49.7894 23.7293 49.0286 23.3939 48.0564 23.3939C46.5349 23.3939 45.4782 24.1066 44.802 25.574C44.1257 26.9994 43.7876 29.473 43.7876 32.9946Z" fill="#005F32"/>
<path d="M58.7075 31.9884C58.7075 28.3409 59.5951 25.6997 61.328 24.0227C63.0609 22.3457 65.3855 21.5072 68.2596 21.5072C70.1193 21.5072 71.5986 21.8846 72.6553 22.5973V16.1409C72.6553 12.1581 73.0779 9.22339 73.881 7.42064C74.684 5.61789 76.2056 4.69556 78.4457 4.69556C79.6714 4.69556 80.6013 5.19865 81.2775 6.20484C81.9538 7.21102 82.2919 8.67838 82.2919 10.5231C82.2919 13.9189 80.5168 17.3567 76.9664 20.8784V35.8035C76.9664 37.6062 77.2623 38.9897 77.8963 39.9121C78.5302 40.8344 79.3333 41.2956 80.3477 41.2956C81.3621 41.2956 82.3342 40.6667 83.3063 39.409C84.2362 38.1512 84.7011 36.1808 84.7011 33.4557C84.7011 32.8688 84.7011 32.3657 84.6588 32.0303C84.7011 31.8207 84.9124 31.7368 85.3773 31.7368C85.9691 31.7368 86.2226 32.5753 86.2226 34.2523C86.2226 36.8935 85.6309 39.0317 84.4052 40.6667C83.2218 42.3018 81.6579 43.1402 79.7982 43.1402C76.3747 43.1402 74.1346 41.631 73.0779 38.6543C72.4862 39.9959 71.6409 41.044 70.5843 41.8825C69.5276 42.721 68.3442 43.0983 67.0339 43.0983C61.4971 43.0983 58.7075 39.409 58.7075 31.9884ZM67.5834 41.2536C68.7668 41.2536 69.908 40.6248 70.9646 39.3251C72.0213 38.0255 72.5707 36.3904 72.5707 34.42V28.299C72.5707 26.7478 72.1904 25.532 71.4296 24.6516C70.6688 23.7712 69.7812 23.3519 68.8091 23.3519C67.837 23.3519 67.0339 23.4358 66.4422 23.6035C65.8927 23.7712 65.3433 24.1066 64.7938 24.6516C63.7794 25.6997 63.2722 28.1313 63.2722 31.9884C63.2722 35.8454 63.7372 38.4028 64.6248 39.6186C65.3855 40.7086 66.3999 41.2536 67.5834 41.2536ZM78.5302 6.54023C77.854 6.54023 77.4313 7.29487 77.2623 8.76222C77.0932 10.2296 77.0087 13.5416 77.0087 18.6145C79.1642 15.8055 80.2631 13.1224 80.2631 10.4811C80.2209 7.83989 79.6714 6.54023 78.5302 6.54023Z" fill="#005F32"/>
<path d="M98.9868 22.8908C99.4095 21.9685 100.086 21.5073 100.973 21.5073C101.903 21.5073 102.579 21.7169 103.002 22.1781V46.3266C103.382 46.2847 103.974 46.2847 104.82 46.2847C105.665 46.2847 106.087 46.62 106.087 47.3328L105.792 48.0455C104.566 48.0455 103.636 48.0455 103.002 48.0874V50.5609C102.96 53.831 102.199 56.3884 100.72 58.2331C99.2404 60.0778 97.2539 61.0001 94.8025 61.0001C93.3232 61.0001 92.0129 60.5809 90.914 59.7005C89.7728 58.82 89.2234 57.4366 89.2234 55.5919C89.2234 53.1603 90.0687 51.2737 91.8016 49.8482C93.5345 48.4228 95.8169 47.4166 98.691 46.8716V39.8702C97.3384 42.0503 95.4787 43.1403 93.1119 43.1403C87.5327 43.1403 84.7009 39.4929 84.7009 32.24C84.7009 28.5506 85.5885 25.8675 87.3214 24.1066C89.0543 22.3458 91.3789 21.5073 94.253 21.5073C96.4931 21.5073 98.057 21.9685 98.9868 22.8908ZM98.691 33.0785V29.6826C98.691 27.4187 98.3106 25.8255 97.5498 24.8194C96.789 23.8551 95.9014 23.352 94.887 23.352C93.8726 23.352 93.0696 23.4358 92.5201 23.6455C91.9707 23.8551 91.3789 24.2324 90.8295 24.8194C89.8151 25.9513 89.3079 28.4249 89.3079 32.24C89.3079 34.7554 89.5192 36.684 89.9842 38.1094C90.4491 39.4929 90.9563 40.3733 91.5057 40.7506C92.0975 41.1279 92.9005 41.2956 93.9149 41.2956C94.9715 41.2956 96.0282 40.6249 97.0848 39.3252C98.1838 38.0255 98.691 35.9293 98.691 33.0785ZM98.691 50.4771V48.6743C93.9994 49.7225 91.6325 52.0702 91.6325 55.7596C91.6325 56.8496 91.9284 57.73 92.5624 58.317C93.1541 58.9039 93.8726 59.1974 94.718 59.1974C96.0705 59.1974 97.0426 58.5685 97.7188 57.3527C98.3528 56.095 98.691 53.8311 98.691 50.4771Z" fill="#005F32"/>
<path d="M127.728 32.3238C128.404 32.3238 128.742 32.8269 128.742 33.8331C128.742 36.1809 127.939 38.319 126.291 40.2475C124.643 42.1761 122.149 43.1403 118.768 43.1403C115.386 43.1403 112.724 42.2599 110.695 40.4572C108.666 38.6544 107.652 36.0132 107.652 32.5754C107.652 29.1376 108.539 26.3706 110.357 24.442C112.132 22.4716 114.414 21.5073 117.204 21.5073C119.232 21.5073 120.67 22.0523 121.599 23.1005C122.529 24.1486 122.994 25.4063 122.994 26.8736C122.994 29.2633 121.98 31.2338 119.993 32.785C118.007 34.3362 115.429 35.1328 112.343 35.1328C112.639 37.1451 113.358 38.6963 114.583 39.7025C115.767 40.7506 117.373 41.2537 119.317 41.2537C121.304 41.2537 123.079 40.4991 124.643 39.0317C126.206 37.5644 127.009 35.3843 127.009 32.5334C127.009 32.4077 127.263 32.3238 127.728 32.3238ZM112.174 32.9946V33.4139C114.161 33.1623 115.893 32.5334 117.331 31.5692C118.768 30.6049 119.528 29.1376 119.528 27.209C119.528 25.9513 119.275 25.029 118.725 24.3582C118.176 23.7293 117.415 23.3939 116.443 23.3939C114.921 23.3939 113.865 24.1066 113.188 25.574C112.512 26.9994 112.174 29.473 112.174 32.9946Z" fill="#005F32"/>
<path d="M141.507 10.0199L158.328 23.5615V0C151.185 0.335395 144.972 4.27629 141.507 10.0199Z" fill="#005F32"/>
<path d="M138.632 20.4592V24.3162L158.328 40.2056V26.0351L140.577 11.7389C139.309 14.3801 138.632 17.3568 138.632 20.4592Z" fill="#005F32"/>
<path d="M138.632 46.7455H158.328V42.7208L138.632 26.8314V46.7455Z" fill="#005F32"/>
<path d="M179.757 17.3567C178.277 7.83987 170.205 0.461169 160.272 0V33.0364L179.757 17.3567Z" fill="#005F32"/>
<path d="M179.968 19.7045L160.272 35.5519V46.7457H179.968V20.4591C180.01 20.2076 180.01 19.956 179.968 19.7045Z" fill="#005F32"/>
<path d="M35.4093 83.08C35.1639 83.08 34.9666 83.0053 34.8173 82.856C34.6679 82.7067 34.5933 82.504 34.5933 82.248V72.472C34.5933 72.2267 34.6679 72.0293 34.8173 71.88C34.9666 71.72 35.1639 71.64 35.4093 71.64C35.6653 71.64 35.8679 71.7147 36.0173 71.864C36.1666 72.0133 36.2413 72.216 36.2413 72.472V82.248C36.2413 82.504 36.1666 82.7067 36.0173 82.856C35.8786 83.0053 35.6759 83.08 35.4093 83.08ZM42.8749 75C44.7415 75 45.6749 76.0507 45.6749 78.152V82.312C45.6749 82.5573 45.6002 82.7493 45.4509 82.888C45.3122 83.016 45.1149 83.08 44.8589 83.08C44.6135 83.08 44.4162 83.0107 44.2669 82.872C44.1282 82.7333 44.0589 82.5467 44.0589 82.312V78.232C44.0589 77.5707 43.9255 77.0853 43.6589 76.776C43.4029 76.4667 42.9975 76.312 42.4429 76.312C41.7922 76.312 41.2695 76.5147 40.8749 76.92C40.4802 77.3253 40.2829 77.8693 40.2829 78.552V82.312C40.2829 82.5467 40.2082 82.7333 40.0589 82.872C39.9202 83.0107 39.7282 83.08 39.4829 83.08C39.2375 83.08 39.0402 83.0107 38.8909 82.872C38.7415 82.7333 38.6669 82.5467 38.6669 82.312V75.8C38.6669 75.576 38.7415 75.3947 38.8909 75.256C39.0509 75.1067 39.2482 75.032 39.4829 75.032C39.7175 75.032 39.9042 75.1013 40.0429 75.24C40.1815 75.3787 40.2509 75.56 40.2509 75.784V76.44C40.5069 75.9707 40.8642 75.6133 41.3229 75.368C41.7815 75.1227 42.2989 75 42.8749 75ZM53.4376 75.512C53.5016 75.352 53.5923 75.2347 53.7096 75.16C53.8376 75.0853 53.971 75.048 54.1096 75.048C54.3123 75.048 54.4883 75.1173 54.6376 75.256C54.7976 75.3947 54.8776 75.56 54.8776 75.752C54.8776 75.8587 54.8563 75.96 54.8136 76.056L51.7576 82.536C51.683 82.7067 51.5656 82.84 51.4056 82.936C51.2563 83.0213 51.0963 83.064 50.9256 83.064C50.755 83.064 50.5896 83.0213 50.4296 82.936C50.2803 82.84 50.1683 82.7067 50.0936 82.536L47.0376 76.056C46.995 75.9707 46.9736 75.8693 46.9736 75.752C46.9736 75.56 47.059 75.3947 47.2296 75.256C47.4003 75.1173 47.5923 75.048 47.8056 75.048C48.115 75.048 48.3443 75.1973 48.4936 75.496L50.9736 81L53.4376 75.512ZM62.2008 81.032C62.3501 81.032 62.4728 81.0907 62.5688 81.208C62.6648 81.3253 62.7128 81.4747 62.7128 81.656C62.7128 81.9653 62.5208 82.2267 62.1368 82.44C61.7634 82.6533 61.3528 82.8187 60.9048 82.936C60.4674 83.0533 60.0461 83.112 59.6408 83.112C58.4034 83.112 57.4274 82.7547 56.7128 82.04C55.9981 81.3147 55.6408 80.328 55.6408 79.08C55.6408 78.28 55.7954 77.5707 56.1048 76.952C56.4248 76.3333 56.8674 75.8533 57.4328 75.512C58.0088 75.1707 58.6594 75 59.3848 75C60.4301 75 61.2568 75.336 61.8648 76.008C62.4728 76.68 62.7768 77.5867 62.7768 78.728C62.7768 79.1547 62.5848 79.368 62.2008 79.368H57.2568C57.3634 81.0213 58.1581 81.848 59.6408 81.848C60.0354 81.848 60.3768 81.7947 60.6648 81.688C60.9528 81.5813 61.2568 81.4427 61.5768 81.272C61.6088 81.2507 61.6941 81.208 61.8328 81.144C61.9821 81.0693 62.1048 81.032 62.2008 81.032ZM59.4168 76.184C58.7981 76.184 58.3021 76.3813 57.9288 76.776C57.5554 77.1707 57.3314 77.7253 57.2568 78.44H61.3848C61.3528 77.7147 61.1661 77.16 60.8248 76.776C60.4941 76.3813 60.0248 76.184 59.4168 76.184ZM67.2775 83.112C66.1895 83.112 65.2988 82.888 64.6055 82.44C64.4135 82.3227 64.2748 82.2 64.1895 82.072C64.1148 81.944 64.0775 81.8 64.0775 81.64C64.0775 81.4693 64.1255 81.3253 64.2215 81.208C64.3175 81.0907 64.4402 81.032 64.5895 81.032C64.7282 81.032 64.9468 81.1173 65.2455 81.288C65.5655 81.4587 65.8748 81.5973 66.1735 81.704C66.4828 81.8107 66.8668 81.864 67.3255 81.864C67.8375 81.864 68.2375 81.7733 68.5255 81.592C68.8135 81.4107 68.9575 81.1547 68.9575 80.824C68.9575 80.6107 68.8988 80.44 68.7815 80.312C68.6748 80.184 68.4828 80.072 68.2055 79.976C67.9282 79.8693 67.5175 79.7573 66.9735 79.64C66.0348 79.4373 65.3575 79.1653 64.9415 78.824C64.5362 78.472 64.3335 77.9973 64.3335 77.4C64.3335 76.9413 64.4668 76.5307 64.7335 76.168C65.0002 75.7947 65.3682 75.5067 65.8375 75.304C66.3068 75.1013 66.8402 75 67.4375 75C67.8642 75 68.2802 75.0587 68.6855 75.176C69.0908 75.2827 69.4482 75.4427 69.7575 75.656C70.1095 75.8907 70.2855 76.1627 70.2855 76.472C70.2855 76.6427 70.2322 76.7867 70.1255 76.904C70.0295 77.0213 69.9122 77.08 69.7735 77.08C69.6775 77.08 69.5815 77.0587 69.4855 77.016C69.3895 76.9733 69.2615 76.904 69.1015 76.808C68.8135 76.6373 68.5415 76.504 68.2855 76.408C68.0402 76.312 67.7308 76.264 67.3575 76.264C66.9095 76.264 66.5468 76.36 66.2695 76.552C66.0028 76.744 65.8695 77.0053 65.8695 77.336C65.8695 77.6347 65.9922 77.8693 66.2375 78.04C66.4935 78.2 66.9682 78.3547 67.6615 78.504C68.3762 78.6533 68.9362 78.824 69.3415 79.016C69.7468 79.208 70.0348 79.448 70.2055 79.736C70.3868 80.0133 70.4775 80.3707 70.4775 80.808C70.4775 81.5013 70.1842 82.0613 69.5975 82.488C69.0215 82.904 68.2482 83.112 67.2775 83.112ZM76.0221 81.848C76.2568 81.8693 76.4221 81.9333 76.5181 82.04C76.6248 82.136 76.6781 82.2747 76.6781 82.456C76.6781 82.6693 76.5928 82.8347 76.4221 82.952C76.2621 83.0587 76.0221 83.1013 75.7021 83.08L75.2701 83.048C74.4061 82.984 73.7608 82.7227 73.3341 82.264C72.9075 81.7947 72.6941 81.1067 72.6941 80.2V76.44H71.7341C71.2648 76.44 71.0301 76.232 71.0301 75.816C71.0301 75.624 71.0888 75.4747 71.2061 75.368C71.3341 75.2507 71.5101 75.192 71.7341 75.192H72.6941V73.544C72.6941 73.2987 72.7635 73.1067 72.9021 72.968C73.0515 72.8293 73.2488 72.76 73.4941 72.76C73.7395 72.76 73.9368 72.8293 74.0861 72.968C74.2355 73.1067 74.3101 73.2987 74.3101 73.544V75.192H75.8941C76.1181 75.192 76.2888 75.2507 76.4061 75.368C76.5341 75.4747 76.5981 75.624 76.5981 75.816C76.5981 76.0187 76.5341 76.1733 76.4061 76.28C76.2888 76.3867 76.1181 76.44 75.8941 76.44H74.3101V80.312C74.3101 80.8133 74.4115 81.1813 74.6141 81.416C74.8275 81.6507 75.1475 81.784 75.5741 81.816L76.0221 81.848ZM82.8735 83.08C82.6388 83.08 82.4415 83.016 82.2815 82.888C82.1322 82.76 82.0575 82.568 82.0575 82.312V75.816C82.0575 75.56 82.1322 75.368 82.2815 75.24C82.4415 75.1013 82.6388 75.032 82.8735 75.032C83.1082 75.032 83.3002 75.1013 83.4495 75.24C83.5988 75.368 83.6735 75.56 83.6735 75.816V82.312C83.6735 82.568 83.5988 82.76 83.4495 82.888C83.3002 83.016 83.1082 83.08 82.8735 83.08ZM82.8735 73.464C82.5642 73.464 82.3188 73.3787 82.1375 73.208C81.9562 73.0373 81.8655 72.8133 81.8655 72.536C81.8655 72.2587 81.9562 72.04 82.1375 71.88C82.3188 71.7093 82.5642 71.624 82.8735 71.624C83.1722 71.624 83.4122 71.7093 83.5935 71.88C83.7855 72.04 83.8815 72.2587 83.8815 72.536C83.8815 72.8133 83.7908 73.0373 83.6095 73.208C83.4282 73.3787 83.1828 73.464 82.8735 73.464ZM90.1405 75C92.0072 75 92.9405 76.0507 92.9405 78.152V82.312C92.9405 82.5573 92.8658 82.7493 92.7165 82.888C92.5778 83.016 92.3805 83.08 92.1245 83.08C91.8792 83.08 91.6818 83.0107 91.5325 82.872C91.3938 82.7333 91.3245 82.5467 91.3245 82.312V78.232C91.3245 77.5707 91.1912 77.0853 90.9245 76.776C90.6685 76.4667 90.2632 76.312 89.7085 76.312C89.0578 76.312 88.5352 76.5147 88.1405 76.92C87.7458 77.3253 87.5485 77.8693 87.5485 78.552V82.312C87.5485 82.5467 87.4738 82.7333 87.3245 82.872C87.1858 83.0107 86.9938 83.08 86.7485 83.08C86.5032 83.08 86.3058 83.0107 86.1565 82.872C86.0072 82.7333 85.9325 82.5467 85.9325 82.312V75.8C85.9325 75.576 86.0072 75.3947 86.1565 75.256C86.3165 75.1067 86.5138 75.032 86.7485 75.032C86.9832 75.032 87.1698 75.1013 87.3085 75.24C87.4472 75.3787 87.5165 75.56 87.5165 75.784V76.44C87.7725 75.9707 88.1298 75.6133 88.5885 75.368C89.0472 75.1227 89.5645 75 90.1405 75ZM103.562 75C104.234 75 104.831 75.1707 105.354 75.512C105.887 75.8533 106.298 76.3333 106.586 76.952C106.885 77.5707 107.034 78.2853 107.034 79.096C107.034 79.896 106.89 80.6 106.602 81.208C106.314 81.816 105.903 82.2853 105.37 82.616C104.847 82.9467 104.245 83.112 103.562 83.112C102.975 83.112 102.458 82.9893 102.01 82.744C101.562 82.488 101.221 82.1253 100.986 81.656V85.224C100.986 85.448 100.911 85.624 100.762 85.752C100.623 85.8907 100.437 85.96 100.202 85.96C99.9567 85.96 99.754 85.8907 99.594 85.752C99.4447 85.6133 99.37 85.4267 99.37 85.192V75.816C99.37 75.5813 99.4447 75.3947 99.594 75.256C99.7433 75.1067 99.9407 75.032 100.186 75.032C100.421 75.032 100.613 75.1067 100.762 75.256C100.911 75.3947 100.986 75.5813 100.986 75.816V76.472C101.221 76.0027 101.562 75.64 102.01 75.384C102.458 75.128 102.975 75 103.562 75ZM103.178 81.832C103.882 81.832 104.426 81.5973 104.81 81.128C105.194 80.648 105.386 79.9707 105.386 79.096C105.386 78.2107 105.189 77.5227 104.794 77.032C104.41 76.5413 103.871 76.296 103.178 76.296C102.474 76.296 101.93 76.536 101.546 77.016C101.173 77.496 100.986 78.1787 100.986 79.064C100.986 79.9493 101.173 80.632 101.546 81.112C101.93 81.592 102.474 81.832 103.178 81.832ZM114.935 81.032C115.084 81.032 115.207 81.0907 115.303 81.208C115.399 81.3253 115.447 81.4747 115.447 81.656C115.447 81.9653 115.255 82.2267 114.871 82.44C114.498 82.6533 114.087 82.8187 113.639 82.936C113.202 83.0533 112.78 83.112 112.375 83.112C111.138 83.112 110.162 82.7547 109.447 82.04C108.732 81.3147 108.375 80.328 108.375 79.08C108.375 78.28 108.53 77.5707 108.839 76.952C109.159 76.3333 109.602 75.8533 110.167 75.512C110.743 75.1707 111.394 75 112.119 75C113.164 75 113.991 75.336 114.599 76.008C115.207 76.68 115.511 77.5867 115.511 78.728C115.511 79.1547 115.319 79.368 114.935 79.368H109.991C110.098 81.0213 110.892 81.848 112.375 81.848C112.77 81.848 113.111 81.7947 113.399 81.688C113.687 81.5813 113.991 81.4427 114.311 81.272C114.343 81.2507 114.428 81.208 114.567 81.144C114.716 81.0693 114.839 81.032 114.935 81.032ZM112.151 76.184C111.532 76.184 111.036 76.3813 110.663 76.776C110.29 77.1707 110.066 77.7253 109.991 78.44H114.119C114.087 77.7147 113.9 77.16 113.559 76.776C113.228 76.3813 112.759 76.184 112.151 76.184ZM120.684 83.112C119.916 83.112 119.239 82.9467 118.652 82.616C118.076 82.2853 117.628 81.816 117.308 81.208C116.999 80.5893 116.844 79.8747 116.844 79.064C116.844 78.2427 116.999 77.528 117.308 76.92C117.628 76.3013 118.076 75.8267 118.652 75.496C119.239 75.1653 119.916 75 120.684 75C121.452 75 122.124 75.1653 122.7 75.496C123.287 75.8267 123.735 76.3013 124.044 76.92C124.364 77.528 124.524 78.2427 124.524 79.064C124.524 79.8747 124.364 80.5893 124.044 81.208C123.735 81.816 123.287 82.2853 122.7 82.616C122.124 82.9467 121.452 83.112 120.684 83.112ZM120.684 81.832C121.399 81.832 121.943 81.5973 122.316 81.128C122.7 80.6587 122.892 79.9707 122.892 79.064C122.892 78.168 122.7 77.4853 122.316 77.016C121.932 76.536 121.388 76.296 120.684 76.296C119.98 76.296 119.436 76.536 119.052 77.016C118.668 77.4853 118.476 78.168 118.476 79.064C118.476 79.9707 118.663 80.6587 119.036 81.128C119.42 81.5973 119.969 81.832 120.684 81.832ZM130.515 75C131.187 75 131.784 75.1707 132.307 75.512C132.84 75.8533 133.251 76.3333 133.539 76.952C133.838 77.5707 133.987 78.2853 133.987 79.096C133.987 79.896 133.843 80.6 133.555 81.208C133.267 81.816 132.856 82.2853 132.323 82.616C131.8 82.9467 131.198 83.112 130.515 83.112C129.928 83.112 129.411 82.9893 128.963 82.744C128.515 82.488 128.174 82.1253 127.939 81.656V85.224C127.939 85.448 127.864 85.624 127.715 85.752C127.576 85.8907 127.39 85.96 127.155 85.96C126.91 85.96 126.707 85.8907 126.547 85.752C126.398 85.6133 126.323 85.4267 126.323 85.192V75.816C126.323 75.5813 126.398 75.3947 126.547 75.256C126.696 75.1067 126.894 75.032 127.139 75.032C127.374 75.032 127.566 75.1067 127.715 75.256C127.864 75.3947 127.939 75.5813 127.939 75.816V76.472C128.174 76.0027 128.515 75.64 128.963 75.384C129.411 75.128 129.928 75 130.515 75ZM130.131 81.832C130.835 81.832 131.379 81.5973 131.763 81.128C132.147 80.648 132.339 79.9707 132.339 79.096C132.339 78.2107 132.142 77.5227 131.747 77.032C131.363 76.5413 130.824 76.296 130.131 76.296C129.427 76.296 128.883 76.536 128.499 77.016C128.126 77.496 127.939 78.1787 127.939 79.064C127.939 79.9493 128.126 80.632 128.499 81.112C128.883 81.592 129.427 81.832 130.131 81.832ZM136.592 83.08C136.358 83.08 136.16 83.016 136 82.888C135.851 82.76 135.776 82.568 135.776 82.312V72.424C135.776 72.168 135.851 71.976 136 71.848C136.16 71.7093 136.358 71.64 136.592 71.64C136.827 71.64 137.019 71.7093 137.168 71.848C137.318 71.976 137.392 72.168 137.392 72.424V82.312C137.392 82.568 137.318 82.76 137.168 82.888C137.019 83.016 136.827 83.08 136.592 83.08ZM145.763 81.032C145.913 81.032 146.035 81.0907 146.131 81.208C146.227 81.3253 146.275 81.4747 146.275 81.656C146.275 81.9653 146.083 82.2267 145.699 82.44C145.326 82.6533 144.915 82.8187 144.467 82.936C144.03 83.0533 143.609 83.112 143.203 83.112C141.966 83.112 140.99 82.7547 140.275 82.04C139.561 81.3147 139.203 80.328 139.203 79.08C139.203 78.28 139.358 77.5707 139.667 76.952C139.987 76.3333 140.43 75.8533 140.995 75.512C141.571 75.1707 142.222 75 142.947 75C143.993 75 144.819 75.336 145.427 76.008C146.035 76.68 146.339 77.5867 146.339 78.728C146.339 79.1547 146.147 79.368 145.763 79.368H140.819C140.926 81.0213 141.721 81.848 143.203 81.848C143.598 81.848 143.939 81.7947 144.227 81.688C144.515 81.5813 144.819 81.4427 145.139 81.272C145.171 81.2507 145.257 81.208 145.395 81.144C145.545 81.0693 145.667 81.032 145.763 81.032ZM142.979 76.184C142.361 76.184 141.865 76.3813 141.491 76.776C141.118 77.1707 140.894 77.7253 140.819 78.44H144.947C144.915 77.7147 144.729 77.16 144.387 76.776C144.057 76.3813 143.587 76.184 142.979 76.184Z" fill="#005F32"/>
</svg>
